# xmcd
#
# Track frame offsets:
#	150
#	6940
#	23292
#	36790
#	55410
#	68707
#	86895
#	100245
#	114447
#	130312
#	143747
#	155725
#	173132
#	186440
#	200472
#	217625
#	233005
#	248470
#	264622
#	279770
#	295735
#
# Disc length: 4213 seconds
#
# Revision: 0
# Processed by: cddbd v1.5.1PL0 Copyright (c) Steve Scherf et al.
# Submitted via: audiograbber 1.80
#
DISCID=1e107315
DTITLE=Tche Barbaridade - Ao vivo
DYEAR=1900
DGENRE=
TTITLE0=Hino Riograndense
TTITLE1=os ginetes do Brasil
TTITLE2=Maria dançadeira
TTITLE3=vida de gaucho
TTITLE4=de a cavalo
TTITLE5=e sábado o dia
TTITLE6=a gaita do belizario
TTITLE7=o rio grande me criou
TTITLE8=ao som do gaitaco
TTITLE9=bica que bica
TTITLE10=o tche chegou
TTITLE11=vai, vai no balanço do tche
TTITLE12=bailão da nega Joana
TTITLE13=uma negrinha te esperando
TTITLE14=gaitaco brasileiro
TTITLE15=moca fandangueira
TTITLE16=festa na rua
TTITLE17=bugio kilha
TTITLE18=apaixonado
TTITLE19=ausência
TTITLE20=vanerao do adeus
EXTD=
EXTT0=
EXTT1=
EXTT2=
EXTT3=
EXTT4=
EXTT5=
EXTT6=
EXTT7=
EXTT8=
EXTT9=
EXTT10=
EXTT11=
EXTT12=
EXTT13=
EXTT14=
EXTT15=
EXTT16=
EXTT17=
EXTT18=
EXTT19=
EXTT20=
PLAYORDER=
